<svg xmlns="http://www.w3.org/2000/svg" width="19.385" height="15.908"><g data-name="Group 14" transform="translate(-1 -1037.4)"><path data-name="Path 24" d="M6 1037.4v1a1 1 0 0 0-1 1v10H4v-2H2v2a1 1 0 0 0 1 1v1h7a2 2 0 0 0 2-2v-8h3v-2a2 2 0 0 0-2-2Z" fill="#e0e0e0"/><path data-name="Path 25" d="M6 1037.4a2 2 0 0 0-2 2v7H1v3a2 2 0 0 0 4 0v-10a1 1 0 0 1 2 0v3h5v-1H8v-2a2 2 0 0 0-2-2Zm-4 10h2v2a1 1 0 0 1-2 0Z" fill="#b3b3b3"/><circle data-name="Ellipse 5" transform="translate(3 1048.4)" fill="#e0e0e0"/></g><g data-name="Group 15"><path data-name="Path 26" d="M8.616 14.908V1.4h3.813a6.138 6.138 0 0 1 3.117.779 5.271 5.271 0 0 1 2.092 2.217 7.217 7.217 0 0 1 .747 3.3v.863a7.242 7.242 0 0 1-.737 3.349 5.188 5.188 0 0 1-2.107 2.211 6.529 6.529 0 0 1-3.186.789Zm1.781-12.051v10.594h1.874a4.077 4.077 0 0 0 3.205-1.281 5.294 5.294 0 0 0 1.146-3.649v-.789a5.378 5.378 0 0 0-1.081-3.579 3.846 3.846 0 0 0-3.066-1.3Z" fill="#b3b3b3"/><path data-name="Path 27" d="M9.616 15.908V2.4h3.813a6.138 6.138 0 0 1 3.117.779 5.271 5.271 0 0 1 2.092 2.217 7.217 7.217 0 0 1 .747 3.3v.863a7.242 7.242 0 0 1-.737 3.349 5.188 5.188 0 0 1-2.107 2.211 6.529 6.529 0 0 1-3.186.789Zm1.781-12.051v10.594h1.874a4.077 4.077 0 0 0 3.205-1.281 5.294 5.294 0 0 0 1.146-3.649v-.789a5.378 5.378 0 0 0-1.081-3.579 3.846 3.846 0 0 0-3.066-1.3Z" fill="#e0e0e0"/><path data-name="Path 28" d="M8.6 14.875h1.012V15.9Z" fill="#b3b3b3"/></g></svg>